<svg width="30" height="31" viewBox="0 0 30 31" fill="none" xmlns="http://www.w3.org/2000/svg">
<g clip-path="url(#clip0_1_56)">
<path d="M0.9375 1.9075V30.0325H29.0625V1.9075H0.9375ZM0 0.970001H30V30.97H0V0.970001Z" fill="#E0E0E0"/>
<path d="M11.9105 8.47C9.48952 8.47 7.5 10.4569 7.5 12.8805V19.0595C7.5 21.4805 9.48686 23.47 11.9105 23.47H18.0895C20.5105 23.47 22.5 21.4831 22.5 19.0595V12.8805C22.5 10.4595 20.5131 8.47 18.0895 8.47H11.9105ZM11.9105 9.83364H18.0895C19.7754 9.83364 21.1364 11.1946 21.1364 12.8805V19.0595C21.1364 20.7454 19.7754 22.1064 18.0895 22.1064H11.9105C10.2246 22.1064 8.86364 20.7454 8.86364 19.0595V12.8805C8.86364 11.1946 10.2246 9.83364 11.9105 9.83364ZM19.027 11.3251C18.6834 11.3251 18.4091 11.5994 18.4091 11.943C18.4091 12.2866 18.6834 12.5609 19.027 12.5609C19.3706 12.5609 19.6449 12.2866 19.6449 11.943C19.6449 11.5994 19.3706 11.3251 19.027 11.3251ZM15 11.8791C12.7495 11.8791 10.9091 13.7195 10.9091 15.97C10.9091 18.2205 12.7495 20.0609 15 20.0609C17.2505 20.0609 19.0909 18.2205 19.0909 15.97C19.0909 13.7195 17.2505 11.8791 15 11.8791ZM15 13.2427C16.5154 13.2427 17.7273 14.4546 17.7273 15.97C17.7273 17.4854 16.5154 18.6973 15 18.6973C13.4846 18.6973 12.2727 17.4854 12.2727 15.97C12.2727 14.4546 13.4846 13.2427 15 13.2427Z" fill="#E0E0E0"/>
</g>
<defs>
<clipPath id="clip0_1_56">
<rect width="30" height="30" fill="white" transform="translate(0 0.970001)"/>
</clipPath>
</defs>
</svg>
