<?xml version="1.0" ?>
<!-- Uploaded to: SVG Repo, www.svgrepo.com, Generator: SVG Repo Mixer Tools -->
<svg width="800px" height="800px" viewBox="0 0 20 20" version="1.1" xmlns="http://www.w3.org/2000/svg">
<g id="layer1">
<path d="M 3 0 L 3 4.5585938 L 0 6.8183594 L 0 20 L 20 20 L 20 6.8183594 L 17 4.5585938 L 17 0 L 3 0 z M 4 1 L 16 1 L 16 9.7617188 L 11.990234 12.783203 L 10.951172 12 L 9.0488281 12 L 8.0097656 12.783203 L 4 9.7617188 L 4 1 z M 5 4 L 5 5 L 15 5 L 15 4 L 5 4 z M 3 5.9921875 L 3 9.0078125 L 0.99804688 7.5 L 3 5.9921875 z M 17 5.9921875 L 19.001953 7.5 L 17 9.0078125 L 17 5.9921875 z M 5 6 L 5 7 L 15 7 L 15 6 L 5 6 z M 5 8 L 5 9 L 15 9 L 15 8 L 5 8 z M 1 8.7539062 L 7.1796875 13.410156 L 1 18.066406 L 1 8.7539062 z M 19 8.7539062 L 19 18.066406 L 12.820312 13.410156 L 19 8.7539062 z M 9.6230469 13 L 10.376953 13 L 18.337891 19 L 1.6621094 19 L 9.6230469 13 z " style="fill:#222222; fill-opacity:1; stroke:none; stroke-width:0px;"/>
</g>
</svg>