<svg width="925" height="220" viewBox="0 0 925 220" fill="none" xmlns="http://www.w3.org/2000/svg">
<path d="M256 78.1797V60.3945C256 55.5898 252.09 51.6797 247.285 51.6797C244.207 51.6797 241.314 50.4824 239.139 48.3105C236.963 46.1309 235.764 43.2363 235.764 40.1602V8.84375C235.764 3.9668 231.797 0 226.92 0H216.254C211.377 0 207.41 3.96875 207.41 8.84375V27.1738C207.41 38.5449 198.342 47.9473 187.197 48.1348C181.656 48.2207 176.391 46.1328 172.43 42.2363C168.467 38.3379 166.285 33.1309 166.285 27.5742V8.84375C166.285 3.9668 162.316 0 157.439 0H146.775C141.898 0 137.93 3.96875 137.93 8.84375V20.1445C137.93 22.2168 139.609 23.8945 141.68 23.8945C143.752 23.8945 145.43 22.2168 145.43 20.1445V8.84375C145.43 8.10352 146.033 7.5 146.775 7.5H157.439C158.182 7.5 158.785 8.10352 158.785 8.84375V27.5742C158.785 35.1582 161.764 42.2637 167.17 47.582C172.576 52.9004 179.732 55.7441 187.322 55.6348C202.535 55.377 214.91 42.6094 214.91 27.1738V8.84375C214.91 8.10352 215.514 7.5 216.254 7.5H226.92C227.66 7.5 228.264 8.10352 228.264 8.84375V40.1602C228.264 45.2363 230.24 50.0137 233.836 53.6133C237.432 57.2031 242.207 59.1797 247.285 59.1797C247.955 59.1797 248.5 59.7246 248.5 60.3945V75.8887L186.846 105.469L125.195 75.8906V60.3945C125.195 59.9805 125.389 59.6992 125.559 59.5293C125.689 59.3984 125.973 59.1797 126.41 59.1797C136.898 59.1797 145.43 50.6484 145.43 40.1602V35.1445C145.43 33.0742 143.752 31.3945 141.68 31.3945C139.609 31.3945 137.93 33.0742 137.93 35.1445V40.1602C137.93 46.5117 132.762 51.6797 126.41 51.6797C124.074 51.6797 121.883 52.5879 120.248 54.2324C118.602 55.8789 117.695 58.0684 117.695 60.3945V78.1211C117.693 78.2051 117.693 78.2891 117.695 78.373V140.684L98.4102 152.242C95.6934 150.684 92.584 149.844 89.4297 149.844H67.0547V85.0625H89.4297C99.3691 85.0625 107.455 76.9766 107.455 67.0371C107.455 57.0977 99.3691 49.0117 89.4297 49.0117H85.502V44.916C85.502 36.8008 78.8984 30.1992 70.7832 30.1992H67.0547V22.8496C67.0547 18.5762 63.5781 15.0996 59.3047 15.0996H48.1504C43.877 15.0996 40.4004 18.5762 40.4004 22.8496V30.1992H36.6719C28.5566 30.1992 21.9531 36.8008 21.9531 44.916V49.0117H18.0254C16.3789 49.0117 14.748 49.2344 13.1758 49.6719C11.1816 50.2285 10.0137 52.2969 10.5703 54.293C11.127 56.2871 13.1934 57.4512 15.1914 56.8965C16.1074 56.6406 17.0605 56.5117 18.0254 56.5117H89.4297C95.2344 56.5117 99.9551 61.2324 99.9551 67.0371C99.9551 72.8398 95.2344 77.5605 89.4297 77.5605H18.0254C12.2207 77.5605 7.5 72.8398 7.5 67.0371C7.5 66.4414 7.55078 65.8418 7.64844 65.2598C7.99414 63.2168 6.61914 61.2812 4.57812 60.9355C2.53711 60.5879 0.599609 61.9648 0.253906 64.0078C0.0859375 65.0039 0 66.0234 0 67.0371C0 76.9766 8.08594 85.0625 18.0254 85.0625H40.4004V149.844H18.0254C8.08594 149.844 0 157.93 0 167.869C0 172.678 1.87305 177.205 5.28125 180.619C8.68945 184.021 13.2168 185.895 18.0254 185.895H21.9551V189.988C21.9551 198.105 28.5566 204.709 36.6699 204.709H40.4004V212.059C40.4004 216.332 43.877 219.809 48.1504 219.809H59.3047C63.5781 219.809 67.0547 216.332 67.0547 212.059V204.709H67.2031C67.9785 205.727 68.832 206.693 69.7637 207.602C74.8008 212.521 81.334 215.025 87.9922 215.025H223.189C231.084 215.025 237.508 208.602 237.508 200.705V178.494H239.51C248.604 178.494 256 171.096 256 162.004V78.3086C256 78.2656 256 78.2227 256 78.1797ZM47.9004 22.8496C47.9004 22.7129 48.0117 22.5996 48.1504 22.5996H59.3047C59.4434 22.5996 59.5547 22.7129 59.5547 22.8496V30.1992H47.9004V22.8496ZM29.4531 49.0117V44.916C29.4531 40.9355 32.6914 37.6992 36.6719 37.6992H44.0723H44.1504H44.2266H63.2266H63.3047H63.3828H70.7832C74.7637 37.6992 78.002 40.9355 78.002 44.916V49.0117H29.4531ZM157.262 132.215C158.938 132.215 160.445 133.273 161.018 134.848C165.371 146.859 176.881 154.93 189.654 154.93C202.701 154.93 214.291 146.631 218.492 134.279C218.912 133.045 220.072 132.215 221.377 132.215H223.707C227.182 132.215 230.008 135.041 230.008 138.516V185.758H178.09L165.789 168.133C164.605 166.436 162.266 166.02 160.568 167.205C158.871 168.389 158.455 170.727 159.639 172.426L168.943 185.758H159.945L136.781 152.561L143.127 148.756L151.059 160.125C151.789 161.17 152.953 161.73 154.139 161.73C154.879 161.73 155.627 161.512 156.279 161.055C157.979 159.869 158.395 157.531 157.211 155.834L149.229 144.393C151.35 142.002 152.582 138.873 152.582 135.607V132.215H157.262ZM142.061 185.758L124.17 160.119L130.332 156.426L150.799 185.758H142.061ZM123.914 185.758L111.375 167.789L117.721 163.986L132.914 185.76H123.914V185.758ZM89.1836 166.516C89.375 166.863 89.5938 167.199 89.8379 167.518C92.3359 170.768 96.1211 172.508 99.9746 172.508C101.617 172.508 103.273 172.191 104.848 171.539L114.77 185.758H69.6621C70.584 180.486 73.7676 175.756 78.4277 172.965L89.1836 166.516ZM145.082 133.016V135.609C145.082 137.58 144.043 139.434 142.367 140.467C142.301 140.506 142.234 140.545 142.17 140.588L129.58 148.133C129.516 148.17 129.451 148.209 129.387 148.25L116.908 155.729C116.885 155.742 116.859 155.758 116.836 155.773L102.68 164.258C100.381 165.637 97.418 165.072 95.7832 162.947C95.7637 162.922 95.7031 162.842 95.7285 162.711C95.75 162.596 95.8184 162.543 95.8535 162.52L100.148 159.945C100.197 159.918 100.248 159.887 100.297 159.855L144.914 133.111C144.971 133.078 145.025 133.047 145.082 133.016ZM47.9004 85.0625H59.5547V149.844H47.9004V85.0625ZM29.4551 189.99V185.895H50.6406C52.7109 185.895 54.3906 184.217 54.3906 182.145C54.3906 180.074 52.7109 178.395 50.6406 178.395H18.0254C15.2168 178.395 12.5723 177.301 10.584 175.316C8.5957 173.322 7.5 170.678 7.5 167.869C7.5 162.066 12.2207 157.344 18.0254 157.344H89.4297C89.582 157.344 89.7324 157.348 89.8828 157.354L74.5723 166.531C66.748 171.221 61.8887 179.799 61.8887 188.922C61.8887 191.414 62.2402 193.826 62.8945 196.109C62.9023 196.139 62.9121 196.168 62.9199 196.197C62.9258 196.217 62.9316 196.236 62.9375 196.256C63.0293 196.576 63.1289 196.893 63.2344 197.209H36.6699C32.6914 197.209 29.4551 193.971 29.4551 189.99ZM59.5547 212.059C59.5547 212.195 59.4414 212.309 59.3047 212.309H48.1504C48.0137 212.309 47.9004 212.195 47.9004 212.059V204.709H59.5547V212.059ZM230.008 200.705C230.008 204.467 226.949 207.525 223.188 207.525C136.688 207.525 87.8945 207.529 87.4961 207.52C78.9492 207.295 71.8203 201.277 69.8984 193.258H121.865C121.898 193.26 121.93 193.26 121.963 193.26C121.996 193.26 122.029 193.26 122.062 193.258H140.01C140.043 193.26 140.074 193.26 140.107 193.26C140.141 193.26 140.174 193.26 140.207 193.258H157.895C157.928 193.26 157.961 193.26 157.992 193.26C158.025 193.26 158.059 193.26 158.092 193.258H176.039C176.072 193.26 176.104 193.26 176.137 193.26C176.17 193.26 176.203 193.26 176.236 193.258H230.008V200.705ZM239.51 170.994H237.508V138.516C237.508 130.906 231.316 124.715 223.707 124.715H221.377C216.859 124.715 212.848 127.588 211.391 131.863C208.225 141.174 199.488 147.428 189.654 147.428C180.023 147.428 171.35 141.346 168.066 132.293C166.424 127.76 162.082 124.715 157.26 124.715C148.9 124.93 145.715 123.895 141.059 126.68L125.193 136.188V84.209L185.223 113.01C185.736 113.256 186.291 113.379 186.846 113.379C187.4 113.379 187.955 113.256 188.467 113.01L248.498 84.207V162.004C248.5 166.961 244.467 170.994 239.51 170.994Z" fill="white" fill-opacity="0.85"/>
<path d="M298 3.99999H319.2L329 111.6H329.4L339.8 3.99999H363.8L374.2 111.6H374.6L384.4 3.99999H403.4L389.2 144H361.8L351.8 49.6H351.4L341.4 144H312.2L298 3.99999ZM446.328 146C435.528 146 427.261 142.933 421.528 136.8C415.795 130.667 412.928 122 412.928 110.8V37.2C412.928 26 415.795 17.3333 421.528 11.2C427.261 5.06666 435.528 1.99999 446.328 1.99999C457.128 1.99999 465.395 5.06666 471.128 11.2C476.861 17.3333 479.728 26 479.728 37.2V110.8C479.728 122 476.861 130.667 471.128 136.8C465.395 142.933 457.128 146 446.328 146ZM446.328 126C453.928 126 457.728 121.4 457.728 112.2V35.8C457.728 26.6 453.928 22 446.328 22C438.728 22 434.928 26.6 434.928 35.8V112.2C434.928 121.4 438.728 126 446.328 126ZM494.606 3.99999H527.206C538.54 3.99999 546.806 6.66666 552.006 12C557.206 17.2 559.806 25.2667 559.806 36.2V44.8C559.806 59.3333 555.006 68.5333 545.406 72.4V72.8C550.74 74.4 554.473 77.6667 556.606 82.6C558.873 87.5333 560.006 94.1333 560.006 102.4V127C560.006 131 560.14 134.267 560.406 136.8C560.673 139.2 561.34 141.6 562.406 144H540.006C539.206 141.733 538.673 139.6 538.406 137.6C538.14 135.6 538.006 132 538.006 126.8V101.2C538.006 94.8 536.94 90.3333 534.806 87.8C532.806 85.2667 529.273 84 524.206 84H516.606V144H494.606V3.99999ZM524.606 64C529.006 64 532.273 62.8667 534.406 60.6C536.673 58.3333 537.806 54.5333 537.806 49.2V38.4C537.806 33.3333 536.873 29.6667 535.006 27.4C533.273 25.1333 530.473 24 526.606 24H516.606V64H524.606ZM575.27 3.99999H597.27V63L625.27 3.99999H647.27L621.07 55.4L647.67 144H624.67L606.07 81.6L597.27 99.4V144H575.27V3.99999ZM689.883 146C679.083 146 670.816 142.933 665.083 136.8C659.349 130.667 656.483 122 656.483 110.8V37.2C656.483 26 659.349 17.3333 665.083 11.2C670.816 5.06666 679.083 1.99999 689.883 1.99999C700.683 1.99999 708.949 5.06666 714.683 11.2C720.416 17.3333 723.283 26 723.283 37.2V110.8C723.283 122 720.416 130.667 714.683 136.8C708.949 142.933 700.683 146 689.883 146ZM689.883 126C697.483 126 701.283 121.4 701.283 112.2V35.8C701.283 26.6 697.483 22 689.883 22C682.283 22 678.483 26.6 678.483 35.8V112.2C678.483 121.4 682.283 126 689.883 126ZM770.161 146C759.494 146 751.361 143 745.761 137C740.161 130.867 737.361 122.133 737.361 110.8V3.99999H759.361V112.4C759.361 117.2 760.294 120.667 762.161 122.8C764.161 124.933 766.961 126 770.561 126C774.161 126 776.894 124.933 778.761 122.8C780.761 120.667 781.761 117.2 781.761 112.4V3.99999H802.961V110.8C802.961 122.133 800.161 130.867 794.561 137C788.961 143 780.828 146 770.161 146ZM835.83 24H812.83V3.99999H880.83V24H857.83V144H835.83V24Z" fill="white"/>
<path d="M891.481 122.8H912.681V144H891.481V122.8Z" fill="#F40108"/>
<path d="M329.68 178V203H325.68V181.5H315.58V203H311.58V181.5H307.68V178H311.58V176.6C311.58 173.467 312.347 171.2 313.88 169.8C315.447 168.367 317.73 167.65 320.73 167.65C322.697 167.65 324.447 167.85 325.98 168.25C327.513 168.617 328.713 169.067 329.58 169.6L328.23 172.8C327.33 172.233 326.263 171.817 325.03 171.55C323.797 171.283 322.48 171.15 321.08 171.15C319.847 171.15 318.863 171.3 318.13 171.6C317.43 171.867 316.88 172.3 316.48 172.9C316.113 173.467 315.863 174.183 315.73 175.05C315.63 175.917 315.58 176.9 315.58 178H329.68ZM342.382 178H346.282V173.05L350.282 171.9V178H357.082V181.5H350.282V195.35C350.282 197.083 350.499 198.317 350.932 199.05C351.365 199.75 352.099 200.1 353.132 200.1C353.999 200.1 354.732 200.017 355.332 199.85C355.932 199.65 356.599 199.4 357.332 199.1L358.232 202.15C357.332 202.583 356.349 202.933 355.282 203.2C354.215 203.467 353.065 203.6 351.832 203.6C349.799 203.6 348.365 203.033 347.532 201.9C346.699 200.733 346.282 198.8 346.282 196.1V181.5H342.382V178ZM386.925 203V188.75C386.925 186.15 386.542 184.2 385.775 182.9C385.042 181.567 383.675 180.9 381.675 180.9C379.909 180.9 378.442 181.383 377.275 182.35C376.142 183.283 375.342 184.467 374.875 185.9V203H370.875V178H373.675L374.425 181.05H374.625C375.425 179.983 376.492 179.117 377.825 178.45C379.192 177.75 380.809 177.4 382.675 177.4C384.042 177.4 385.242 177.567 386.275 177.9C387.309 178.2 388.159 178.75 388.825 179.55C389.525 180.35 390.042 181.433 390.375 182.8C390.742 184.133 390.925 185.833 390.925 187.9V203H386.925ZM424.719 201C423.719 201.8 422.452 202.433 420.919 202.9C419.419 203.367 417.819 203.6 416.119 203.6C414.219 203.6 412.569 203.3 411.169 202.7C409.769 202.067 408.619 201.183 407.719 200.05C406.819 198.883 406.152 197.5 405.719 195.9C405.286 194.3 405.069 192.5 405.069 190.5C405.069 186.233 406.019 182.983 407.919 180.75C409.819 178.517 412.536 177.4 416.069 177.4C417.202 177.4 418.336 177.533 419.469 177.8C420.602 178.033 421.619 178.5 422.519 179.2C423.419 179.9 424.152 180.9 424.719 182.2C425.286 183.467 425.569 185.15 425.569 187.25C425.569 188.35 425.469 189.567 425.269 190.9H409.219C409.219 192.367 409.369 193.667 409.669 194.8C409.969 195.933 410.436 196.9 411.069 197.7C411.702 198.467 412.519 199.067 413.519 199.5C414.552 199.9 415.802 200.1 417.269 200.1C418.402 200.1 419.536 199.9 420.669 199.5C421.802 199.1 422.652 198.633 423.219 198.1L424.719 201ZM416.119 180.9C414.152 180.9 412.569 181.417 411.369 182.45C410.202 183.483 409.502 185.25 409.269 187.75H421.669C421.669 185.217 421.186 183.45 420.219 182.45C419.252 181.417 417.886 180.9 416.119 180.9ZM451.11 196.2C451.11 195.2 450.81 194.417 450.21 193.85C449.61 193.283 448.86 192.817 447.96 192.45C447.093 192.05 446.126 191.683 445.06 191.35C444.026 190.983 443.06 190.533 442.16 190C441.293 189.433 440.56 188.717 439.96 187.85C439.36 186.983 439.06 185.817 439.06 184.35C439.06 181.95 439.743 180.2 441.11 179.1C442.476 177.967 444.376 177.4 446.81 177.4C448.61 177.4 450.11 177.567 451.31 177.9C452.543 178.2 453.61 178.567 454.51 179L453.56 182.3C452.793 181.933 451.86 181.617 450.76 181.35C449.693 181.05 448.543 180.9 447.31 180.9C445.843 180.9 444.76 181.15 444.06 181.65C443.393 182.15 443.06 183.017 443.06 184.25C443.06 185.117 443.36 185.8 443.96 186.3C444.56 186.767 445.293 187.2 446.16 187.6C447.06 187.967 448.026 188.333 449.06 188.7C450.126 189.067 451.093 189.55 451.96 190.15C452.86 190.75 453.61 191.517 454.21 192.45C454.81 193.35 455.11 194.55 455.11 196.05C455.11 197.117 454.926 198.117 454.56 199.05C454.226 199.983 453.693 200.783 452.96 201.45C452.226 202.117 451.31 202.633 450.21 203C449.143 203.4 447.876 203.6 446.41 203.6C444.51 203.6 442.893 203.417 441.56 203.05C440.226 202.683 439.11 202.25 438.21 201.75L439.41 198.35C440.176 198.783 441.176 199.183 442.41 199.55C443.643 199.917 444.893 200.1 446.16 200.1C447.593 200.1 448.776 199.817 449.71 199.25C450.643 198.683 451.11 197.667 451.11 196.2ZM480.405 196.2C480.405 195.2 480.105 194.417 479.505 193.85C478.905 193.283 478.155 192.817 477.255 192.45C476.388 192.05 475.421 191.683 474.355 191.35C473.321 190.983 472.355 190.533 471.455 190C470.588 189.433 469.855 188.717 469.255 187.85C468.655 186.983 468.355 185.817 468.355 184.35C468.355 181.95 469.038 180.2 470.405 179.1C471.771 177.967 473.671 177.4 476.105 177.4C477.905 177.4 479.405 177.567 480.605 177.9C481.838 178.2 482.905 178.567 483.805 179L482.855 182.3C482.088 181.933 481.155 181.617 480.055 181.35C478.988 181.05 477.838 180.9 476.605 180.9C475.138 180.9 474.055 181.15 473.355 181.65C472.688 182.15 472.355 183.017 472.355 184.25C472.355 185.117 472.655 185.8 473.255 186.3C473.855 186.767 474.588 187.2 475.455 187.6C476.355 187.967 477.321 188.333 478.355 188.7C479.421 189.067 480.388 189.55 481.255 190.15C482.155 190.75 482.905 191.517 483.505 192.45C484.105 193.35 484.405 194.55 484.405 196.05C484.405 197.117 484.221 198.117 483.855 199.05C483.521 199.983 482.988 200.783 482.255 201.45C481.521 202.117 480.605 202.633 479.505 203C478.438 203.4 477.171 203.6 475.705 203.6C473.805 203.6 472.188 203.417 470.855 203.05C469.521 202.683 468.405 202.25 467.505 201.75L468.705 198.35C469.471 198.783 470.471 199.183 471.705 199.55C472.938 199.917 474.188 200.1 475.455 200.1C476.888 200.1 478.071 199.817 479.005 199.25C479.938 198.683 480.405 197.667 480.405 196.2ZM537.33 201.35C536.33 202.083 535.146 202.633 533.78 203C532.413 203.4 530.98 203.6 529.48 203.6C527.546 203.6 525.913 203.3 524.58 202.7C523.246 202.067 522.146 201.183 521.28 200.05C520.446 198.883 519.83 197.5 519.43 195.9C519.063 194.267 518.88 192.467 518.88 190.5C518.88 186.267 519.813 183.033 521.68 180.8C523.546 178.533 526.23 177.4 529.73 177.4C531.33 177.4 532.68 177.533 533.78 177.8C534.913 178.033 535.93 178.383 536.83 178.85L535.68 182.3C534.913 181.867 534.063 181.533 533.13 181.3C532.196 181.033 531.196 180.9 530.13 180.9C525.396 180.9 523.03 184.1 523.03 190.5C523.03 191.767 523.146 192.983 523.38 194.15C523.646 195.283 524.063 196.3 524.63 197.2C525.23 198.067 525.996 198.767 526.93 199.3C527.896 199.833 529.08 200.1 530.48 200.1C531.68 200.1 532.746 199.917 533.68 199.55C534.646 199.183 535.43 198.767 536.03 198.3L537.33 201.35ZM555.538 196.85C555.538 198.017 555.738 198.85 556.138 199.35C556.538 199.85 557.105 200.1 557.838 200.1C558.272 200.1 558.738 200.067 559.238 200C559.738 199.933 560.305 199.783 560.938 199.55L561.388 202.7C560.855 202.967 560.105 203.183 559.138 203.35C558.205 203.517 557.388 203.6 556.688 203.6C555.188 203.6 553.955 203.183 552.988 202.35C552.022 201.483 551.538 200.033 551.538 198V168H555.538V196.85ZM572.538 190.5C572.538 186.267 573.471 183.033 575.338 180.8C577.238 178.533 579.955 177.4 583.488 177.4C585.355 177.4 586.971 177.717 588.338 178.35C589.738 178.95 590.888 179.833 591.788 181C592.688 182.133 593.355 183.517 593.788 185.15C594.221 186.75 594.438 188.533 594.438 190.5C594.438 194.733 593.488 197.983 591.588 200.25C589.721 202.483 587.021 203.6 583.488 203.6C581.621 203.6 579.988 203.3 578.588 202.7C577.221 202.067 576.088 201.183 575.188 200.05C574.288 198.883 573.621 197.5 573.188 195.9C572.755 194.267 572.538 192.467 572.538 190.5ZM576.688 190.5C576.688 191.767 576.805 192.983 577.038 194.15C577.305 195.317 577.705 196.333 578.238 197.2C578.771 198.067 579.471 198.767 580.338 199.3C581.205 199.833 582.255 200.1 583.488 200.1C588.021 200.133 590.288 196.933 590.288 190.5C590.288 189.2 590.155 187.967 589.888 186.8C589.655 185.633 589.271 184.617 588.738 183.75C588.205 182.883 587.505 182.2 586.638 181.7C585.771 181.167 584.721 180.9 583.488 180.9C578.955 180.867 576.688 184.067 576.688 190.5ZM605.695 178H609.595V173.05L613.595 171.9V178H620.395V181.5H613.595V195.35C613.595 197.083 613.811 198.317 614.245 199.05C614.678 199.75 615.411 200.1 616.445 200.1C617.311 200.1 618.045 200.017 618.645 199.85C619.245 199.65 619.911 199.4 620.645 199.1L621.545 202.15C620.645 202.583 619.661 202.933 618.595 203.2C617.528 203.467 616.378 203.6 615.145 203.6C613.111 203.6 611.678 203.033 610.845 201.9C610.011 200.733 609.595 198.8 609.595 196.1V181.5H605.695V178ZM650.238 203V188.75C650.238 187.45 650.155 186.317 649.988 185.35C649.855 184.35 649.588 183.533 649.188 182.9C648.788 182.233 648.238 181.733 647.538 181.4C646.871 181.067 645.988 180.9 644.888 180.9C643.321 180.9 641.905 181.417 640.638 182.45C639.371 183.45 638.555 184.75 638.188 186.35V203H634.188V168H638.188V180.8H638.388C639.255 179.767 640.288 178.95 641.488 178.35C642.721 177.717 644.238 177.4 646.038 177.4C647.438 177.4 648.655 177.567 649.688 177.9C650.721 178.2 651.571 178.75 652.238 179.55C652.938 180.35 653.438 181.433 653.738 182.8C654.071 184.133 654.238 185.833 654.238 187.9V203H650.238ZM670.632 178H674.632V203H670.632V178ZM669.782 170.4C669.782 169.633 670.032 168.983 670.532 168.45C671.065 167.883 671.732 167.6 672.532 167.6C673.332 167.6 674.015 167.883 674.582 168.45C675.148 168.983 675.432 169.633 675.432 170.4C675.432 171.167 675.148 171.8 674.582 172.3C674.015 172.8 673.332 173.05 672.532 173.05C671.732 173.05 671.065 172.8 670.532 172.3C670.032 171.8 669.782 171.167 669.782 170.4ZM707.461 203V188.75C707.461 186.15 707.077 184.2 706.311 182.9C705.577 181.567 704.211 180.9 702.211 180.9C700.444 180.9 698.977 181.383 697.811 182.35C696.677 183.283 695.877 184.467 695.411 185.9V203H691.411V178H694.211L694.961 181.05H695.161C695.961 179.983 697.027 179.117 698.361 178.45C699.727 177.75 701.344 177.4 703.211 177.4C704.577 177.4 705.777 177.567 706.811 177.9C707.844 178.2 708.694 178.75 709.361 179.55C710.061 180.35 710.577 181.433 710.911 182.8C711.277 184.133 711.461 185.833 711.461 187.9V203H707.461ZM746.154 204.15C746.154 207.383 745.288 209.767 743.554 211.3C741.854 212.833 739.321 213.6 735.954 213.6C733.954 213.6 732.338 213.467 731.104 213.2C729.904 212.967 728.871 212.65 728.004 212.25L729.054 208.85C729.821 209.15 730.671 209.433 731.604 209.7C732.538 209.967 733.754 210.1 735.254 210.1C736.654 210.1 737.788 209.967 738.654 209.7C739.554 209.467 740.271 209.05 740.804 208.45C741.338 207.883 741.704 207.133 741.904 206.2C742.104 205.3 742.204 204.217 742.204 202.95V200.55H742.004C741.338 201.517 740.488 202.267 739.454 202.8C738.421 203.3 737.071 203.55 735.404 203.55C732.038 203.55 729.554 202.5 727.954 200.4C726.388 198.3 725.604 195.033 725.604 190.6C725.604 186.333 726.621 183.1 728.654 180.9C730.688 178.667 733.688 177.55 737.654 177.55C739.554 177.55 741.171 177.7 742.504 178C743.871 178.3 745.088 178.65 746.154 179.05V204.15ZM736.104 200.05C737.804 200.05 739.138 199.633 740.104 198.8C741.071 197.933 741.754 196.6 742.154 194.8V182C740.821 181.367 739.121 181.05 737.054 181.05C734.788 181.05 733.004 181.817 731.704 183.35C730.404 184.883 729.754 187.283 729.754 190.55C729.754 191.95 729.871 193.233 730.104 194.4C730.338 195.567 730.704 196.567 731.204 197.4C731.704 198.233 732.354 198.883 733.154 199.35C733.954 199.817 734.938 200.05 736.104 200.05ZM794.69 196.2C794.69 195.2 794.39 194.417 793.79 193.85C793.19 193.283 792.44 192.817 791.54 192.45C790.673 192.05 789.707 191.683 788.64 191.35C787.607 190.983 786.64 190.533 785.74 190C784.873 189.433 784.14 188.717 783.54 187.85C782.94 186.983 782.64 185.817 782.64 184.35C782.64 181.95 783.323 180.2 784.69 179.1C786.057 177.967 787.957 177.4 790.39 177.4C792.19 177.4 793.69 177.567 794.89 177.9C796.123 178.2 797.19 178.567 798.09 179L797.14 182.3C796.373 181.933 795.44 181.617 794.34 181.35C793.273 181.05 792.123 180.9 790.89 180.9C789.423 180.9 788.34 181.15 787.64 181.65C786.973 182.15 786.64 183.017 786.64 184.25C786.64 185.117 786.94 185.8 787.54 186.3C788.14 186.767 788.873 187.2 789.74 187.6C790.64 187.967 791.607 188.333 792.64 188.7C793.707 189.067 794.673 189.55 795.54 190.15C796.44 190.75 797.19 191.517 797.79 192.45C798.39 193.35 798.69 194.55 798.69 196.05C798.69 197.117 798.507 198.117 798.14 199.05C797.807 199.983 797.273 200.783 796.54 201.45C795.807 202.117 794.89 202.633 793.79 203C792.723 203.4 791.457 203.6 789.99 203.6C788.09 203.6 786.473 203.417 785.14 203.05C783.807 202.683 782.69 202.25 781.79 201.75L782.99 198.35C783.757 198.783 784.757 199.183 785.99 199.55C787.223 199.917 788.473 200.1 789.74 200.1C791.173 200.1 792.357 199.817 793.29 199.25C794.223 198.683 794.69 197.667 794.69 196.2ZM809.685 178H813.585V173.05L817.585 171.9V178H824.385V181.5H817.585V195.35C817.585 197.083 817.801 198.317 818.235 199.05C818.668 199.75 819.401 200.1 820.435 200.1C821.301 200.1 822.035 200.017 822.635 199.85C823.235 199.65 823.901 199.4 824.635 199.1L825.535 202.15C824.635 202.583 823.651 202.933 822.585 203.2C821.518 203.467 820.368 203.6 819.135 203.6C817.101 203.6 815.668 203.033 814.835 201.9C814.001 200.733 813.585 198.8 813.585 196.1V181.5H809.685V178ZM836.241 190.5C836.241 186.267 837.174 183.033 839.041 180.8C840.941 178.533 843.658 177.4 847.191 177.4C849.058 177.4 850.674 177.717 852.041 178.35C853.441 178.95 854.591 179.833 855.491 181C856.391 182.133 857.058 183.517 857.491 185.15C857.924 186.75 858.141 188.533 858.141 190.5C858.141 194.733 857.191 197.983 855.291 200.25C853.424 202.483 850.724 203.6 847.191 203.6C845.324 203.6 843.691 203.3 842.291 202.7C840.924 202.067 839.791 201.183 838.891 200.05C837.991 198.883 837.324 197.5 836.891 195.9C836.458 194.267 836.241 192.467 836.241 190.5ZM840.391 190.5C840.391 191.767 840.508 192.983 840.741 194.15C841.008 195.317 841.408 196.333 841.941 197.2C842.474 198.067 843.174 198.767 844.041 199.3C844.908 199.833 845.958 200.1 847.191 200.1C851.724 200.133 853.991 196.933 853.991 190.5C853.991 189.2 853.858 187.967 853.591 186.8C853.358 185.633 852.974 184.617 852.441 183.75C851.908 182.883 851.208 182.2 850.341 181.7C849.474 181.167 848.424 180.9 847.191 180.9C842.658 180.867 840.391 184.067 840.391 190.5ZM884.498 181.85C883.498 181.517 882.548 181.35 881.648 181.35C880.214 181.35 879.081 181.75 878.248 182.55C877.414 183.317 876.898 184.3 876.698 185.5V203H872.698V178H875.498L876.248 181.05H876.448C877.081 179.917 877.831 179.05 878.698 178.45C879.598 177.817 880.731 177.5 882.098 177.5C883.064 177.5 884.148 177.667 885.348 178L884.498 181.85ZM916.19 201C915.19 201.8 913.923 202.433 912.39 202.9C910.89 203.367 909.29 203.6 907.59 203.6C905.69 203.6 904.04 203.3 902.64 202.7C901.24 202.067 900.09 201.183 899.19 200.05C898.29 198.883 897.623 197.5 897.19 195.9C896.757 194.3 896.54 192.5 896.54 190.5C896.54 186.233 897.49 182.983 899.39 180.75C901.29 178.517 904.007 177.4 907.54 177.4C908.673 177.4 909.807 177.533 910.94 177.8C912.073 178.033 913.09 178.5 913.99 179.2C914.89 179.9 915.623 180.9 916.19 182.2C916.757 183.467 917.04 185.15 917.04 187.25C917.04 188.35 916.94 189.567 916.74 190.9H900.69C900.69 192.367 900.84 193.667 901.14 194.8C901.44 195.933 901.907 196.9 902.54 197.7C903.173 198.467 903.99 199.067 904.99 199.5C906.023 199.9 907.273 200.1 908.74 200.1C909.873 200.1 911.007 199.9 912.14 199.5C913.273 199.1 914.123 198.633 914.69 198.1L916.19 201ZM907.59 180.9C905.623 180.9 904.04 181.417 902.84 182.45C901.673 183.483 900.973 185.25 900.74 187.75H913.14C913.14 185.217 912.657 183.45 911.69 182.45C910.723 181.417 909.357 180.9 907.59 180.9Z" fill="white" fill-opacity="0.7"/>
</svg>
