<svg width="30" height="31" viewBox="0 0 30 31" fill="none" xmlns="http://www.w3.org/2000/svg">
<g clip-path="url(#clip0_1_65)">
<path d="M0.9375 1.9075V30.0325H29.0625V1.9075H0.9375ZM0 0.970001H30V30.97H0V0.970001Z" fill="#E0E0E0"/>
<path d="M23.2799 11.7395C23.1378 10.4953 22.8412 10.1327 22.6311 9.96393C22.2975 9.70134 21.6919 9.60757 20.8825 9.5513C19.5849 9.46377 17.3789 9.4075 15 9.4075C12.6149 9.4075 10.4151 9.45752 9.11754 9.5513C8.30808 9.60757 7.70254 9.70134 7.36887 9.96393C7.15878 10.1327 6.86836 10.4953 6.72007 11.7395C6.50998 13.5338 6.50998 17.6226 6.72007 19.4169C6.86836 20.6611 7.15878 21.0237 7.36887 21.1925C7.70254 21.4551 8.30808 21.5489 9.11754 21.6051C10.4151 21.6927 12.6149 21.7489 15 21.7489C17.3851 21.7489 19.5849 21.6927 20.8825 21.6051C21.6919 21.5489 22.2975 21.4551 22.6311 21.1925C22.8412 21.0299 23.1316 20.6611 23.2799 19.4169C23.49 17.6226 23.49 13.5338 23.2799 11.7395ZM12.9609 18.2603V12.8899L18.0525 15.572L12.9609 18.2603Z" fill="#E0E0E0"/>
</g>
<defs>
<clipPath id="clip0_1_65">
<rect width="30" height="30" fill="white" transform="translate(0 0.970001)"/>
</clipPath>
</defs>
</svg>
